SplineFontDB: 3.2
FontName: Arcadepix
FullName: Arcadepix
FamilyName: Arcadepix
Weight: Book
Copyright: (c) 2001 Reekee of Dimenzioned
Version: Macromedia Fontographer 4.1 06.09.01
ItalicAngle: 0
UnderlinePosition: -143
UnderlineWidth: 20
Ascent: 800
Descent: 200
InvalidEm: 0
LayerCount: 2
Layer: 0 0 "Back" 1
Layer: 1 0 "Fore" 0
FSType: 2
OS2Version: 0
OS2_WeightWidthSlopeOnly: 0
OS2_UseTypoMetrics: 0
CreationTime: 1627990032
ModificationTime: 1628012299
OS2TypoAscent: 0
OS2TypoAOffset: 1
OS2TypoDescent: 0
OS2TypoDOffset: 1
OS2TypoLinegap: 0
OS2WinAscent: 0
OS2WinAOffset: 1
OS2WinDescent: 0
OS2WinDOffset: 1
HheadAscent: 0
HheadAOffset: 1
HheadDescent: 0
HheadDOffset: 1
OS2Vendor: 'PfEd'
DEI: 91125
Encoding: Custom
UnicodeInterp: none
NameList: AGL For New Fonts
DisplaySize: -48
AntiAlias: 1
FitToEm: 0
WinInfo: 0 19 14
BeginPrivate: 2
BlueValues 22 [0 0 600 600 700 700 ]
OtherBlues 12 [-200 -200 ]
EndPrivate
BeginChars: 256 100

StartChar: .notdef
Encoding: 98 -1 0
Width: 500
LayerCount: 2
Fore
SplineSet
63 0 m 1
 63 800 l 1
 438 800 l 1
 438 0 l 1
 63 0 l 1
125 63 m 1
 375 63 l 1
 375 738 l 1
 125 738 l 1
 125 63 l 1
EndSplineSet
Validated: 1
EndChar

StartChar: exclam
Encoding: 1 33 4
Width: 604
Flags: W
HStem: -105 166<0 162> 194 293<111 300>
VStem: 0 162<-105 60> 111 287<292 487> 300 198<487.001 696> 398 100<392 487.001> 498 101<487.001 696>
LayerCount: 2
Fore
SplineSet
599 487 m 1xc2
 498 487.000976562 l 1
 498 696 l 5xc8
 599 696 l 1
 599 487 l 1xc2
398 392 m 1xd0
 398 696 l 1xc4
 498 696 l 1xc8
 498 392 l 1xc4
 398 392 l 1xd0
111 487 m 1xd0
 300 487 l 1xc8
 301 192 l 1
 111 194 l 1
 111 487 l 1xd0
300 696 m 1
 398 696 l 1xc4
 398 292 l 1xd0
 300 292 l 1
 300 696 l 1
111 193 m 1
 111 487 l 1025xd0
498 392 m 1025xc4
398 392 m 1
 398 292 l 1025xd0
300 696 m 25
 300 487 l 1049xc8
300 696 m 1
 599 696 l 1xc2
 300 696 l 1
599 696 m 1
 599 487 l 1025
202 193 m 1
 110 193 l 1
 111 487 l 1xd0
 300 487 l 1025xc8
0 -105 m 1xe0
 0 61 l 1
 162 60 l 1
 162 -105 l 1
 0 -105 l 1xe0
EndSplineSet
Validated: 524299
EndChar

StartChar: quotedbl
Encoding: 2 34 5
Width: 700
Flags: W
LayerCount: 2
Fore
SplineSet
397 500 m 1
 397 700 l 1
 600 700 l 1
 600 500 l 1
 397 500 l 1
0 500 m 1
 0 700 l 1
 203 700 l 1
 203 500 l 1
 0 500 l 1
EndSplineSet
Validated: 1
EndChar

StartChar: numbersign
Encoding: 3 35 6
Width: 600
Flags: W
LayerCount: 2
Fore
SplineSet
203 303 m 1
 297 303 l 1
 297 397 l 1
 203 397 l 1
 203 303 l 1
0 199 m 1
 0 303 l 1
 99 303 l 1
 99 397 l 1
 0 397 l 1
 0 501 l 1
 99 501 l 1
 99 600 l 1
 203 600 l 1
 203 501 l 1
 297 501 l 1
 297 600 l 1
 401 600 l 1
 401 501 l 1
 500 501 l 1
 500 397 l 1
 401 397 l 1
 401 303 l 1
 500 303 l 1
 500 199 l 1
 401 199 l 1
 401 100 l 1
 297 100 l 1
 297 199 l 1
 203 199 l 1
 203 100 l 1
 99 100 l 1
 99 199 l 1
 0 199 l 1
EndSplineSet
Validated: 1
EndChar

StartChar: dollar
Encoding: 4 36 7
Width: 600
Flags: W
LayerCount: 2
Fore
SplineSet
198 0 m 1
 198 99 l 1
 0 99 l 1
 0 204 l 1
 297 204 l 1
 297 298 l 1
 99 298 l 1
 99 397 l 1
 0 397 l 1
 0 501 l 1
 99 501 l 1
 99 601 l 1
 198 601 l 1
 198 700 l 1
 302 700 l 1
 302 601 l 1
 401 601 l 1
 401 496 l 1
 104 496 l 1
 104 402 l 1
 401 402 l 1
 401 303 l 1
 500 303 l 1
 500 199 l 1
 401 199 l 1
 401 99 l 1
 302 99 l 1
 302 0 l 1
 198 0 l 1
EndSplineSet
Validated: 1
EndChar

StartChar: percent
Encoding: 5 37 8
Width: 800
Flags: W
LayerCount: 2
Fore
SplineSet
104 501 m 1
 199 501 l 1
 199 596 l 1
 104 596 l 1
 104 501 l 1
99 397 m 1
 99 496 l 1
 0 496 l 1
 0 601 l 1
 99 601 l 1
 99 700 l 1
 204 700 l 1
 204 601 l 1
 303 601 l 1
 303 496 l 1
 204 496 l 1
 204 397 l 1
 99 397 l 1
501 104 m 1
 596 104 l 1
 596 199 l 1
 501 199 l 1
 501 104 l 1
496 0 m 1
 496 99 l 1
 397 99 l 1
 397 204 l 1
 496 204 l 1
 496 303 l 1
 601 303 l 1
 601 204 l 1
 700 204 l 1
 700 99 l 1
 601 99 l 1
 601 0 l 1
 496 0 l 1
99 99 m 1
 99 204 l 1
 199 204 l 1
 199 303 l 1
 298 303 l 1
 298 402 l 1
 397 402 l 1
 397 501 l 1
 496 501 l 1
 496 601 l 1
 601 601 l 1
 601 496 l 1
 501 496 l 1
 501 397 l 1
 402 397 l 1
 402 298 l 1
 303 298 l 1
 303 199 l 1
 204 199 l 1
 204 99 l 1
 99 99 l 1
EndSplineSet
Validated: 1
EndChar

StartChar: ampersand
Encoding: 6 38 9
Width: 700
Flags: W
LayerCount: 2
Fore
SplineSet
302 501 m 1
 397 501 l 1
 397 596 l 1
 302 596 l 1
 302 501 l 1
203 104 m 1
 397 104 l 1
 397 199 l 1
 298 199 l 1
 298 298 l 1
 203 298 l 1
 203 104 l 1
99 0 m 1
 99 99 l 1
 0 99 l 1
 0 303 l 1
 99 303 l 1
 99 402 l 1
 198 402 l 1
 198 496 l 1
 99 496 l 1
 99 601 l 1
 198 601 l 1
 198 700 l 1
 402 700 l 1
 402 601 l 1
 501 601 l 1
 501 496 l 1
 402 496 l 1
 402 303 l 1
 496 303 l 1
 496 402 l 1
 600 402 l 1
 600 298 l 1
 501 298 l 1
 501 204 l 1
 600 204 l 1
 600 0 l 1
 496 0 l 1
 496 99 l 1
 402 99 l 1
 402 0 l 1
 99 0 l 1
EndSplineSet
Validated: 1
EndChar

StartChar: quotesingle
Encoding: 7 39 10
Width: 300
Flags: W
LayerCount: 2
Fore
SplineSet
0 500 m 1
 0 700 l 1
 200 700 l 1
 200 500 l 1
 0 500 l 1
EndSplineSet
Validated: 1
EndChar

StartChar: parenleft
Encoding: 8 40 11
Width: 400
Flags: W
LayerCount: 2
Fore
SplineSet
98 0 m 1
 98 99 l 1
 0 99 l 1
 0 601 l 1
 98 601 l 1
 98 700 l 1
 300 700 l 1
 300 596 l 1
 202 596 l 1
 202 104 l 1
 300 104 l 1
 300 0 l 1
 98 0 l 1
EndSplineSet
Validated: 1
EndChar

StartChar: parenright
Encoding: 9 41 12
Width: 400
Flags: W
LayerCount: 2
Fore
SplineSet
0 0 m 1
 0 104 l 1
 98 104 l 1
 98 596 l 1
 0 596 l 1
 0 700 l 1
 202 700 l 1
 202 601 l 1
 300 601 l 1
 300 99 l 1
 202 99 l 1
 202 0 l 1
 0 0 l 1
EndSplineSet
Validated: 1
EndChar

StartChar: asterisk
Encoding: 10 42 13
Width: 600
Flags: W
LayerCount: 2
Fore
SplineSet
0 99 m 1
 0 204 l 1
 99 204 l 1
 99 298 l 1
 0 298 l 1
 0 402 l 1
 99 402 l 1
 99 496 l 1
 0 496 l 1
 0 601 l 1
 104 601 l 1
 104 501 l 1
 198 501 l 1
 198 700 l 1
 302 700 l 1
 302 501 l 1
 396 501 l 1
 396 601 l 1
 500 601 l 1
 500 496 l 1
 401 496 l 1
 401 402 l 1
 500 402 l 1
 500 298 l 1
 401 298 l 1
 401 204 l 1
 500 204 l 1
 500 99 l 1
 396 99 l 1
 396 199 l 1
 302 199 l 1
 302 0 l 1
 198 0 l 1
 198 199 l 1
 104 199 l 1
 104 99 l 1
 0 99 l 1
EndSplineSet
Validated: 1
EndChar

StartChar: plus
Encoding: 11 43 14
Width: 600
Flags: W
LayerCount: 2
Fore
SplineSet
198 100 m 1
 198 298 l 1
 0 298 l 1
 0 402 l 1
 198 402 l 1
 198 600 l 1
 302 600 l 1
 302 402 l 1
 500 402 l 1
 500 298 l 1
 302 298 l 1
 302 100 l 1
 198 100 l 1
EndSplineSet
Validated: 1
EndChar

StartChar: comma
Encoding: 12 44 15
Width: 400
Flags: W
LayerCount: 2
Fore
SplineSet
0 -100 m 1
 0 3 l 1
 98 3 l 1
 98 200 l 1
 300 200 l 1
 300 -2 l 1
 202 -2 l 1
 202 -100 l 1
 0 -100 l 1
EndSplineSet
Validated: 1
EndChar

StartChar: hyphen
Encoding: 13 45 16
Width: 600
Flags: W
LayerCount: 2
Fore
SplineSet
0 300 m 1
 0 400 l 1
 500 400 l 1
 500 300 l 1
 0 300 l 1
EndSplineSet
Validated: 1
EndChar

StartChar: period
Encoding: 14 46 17
Width: 300
Flags: W
LayerCount: 2
Fore
SplineSet
0 0 m 1
 0 200 l 1
 200 200 l 1
 200 0 l 1
 0 0 l 1
EndSplineSet
Validated: 1
EndChar

StartChar: slash
Encoding: 15 47 18
Width: 700
Flags: W
LayerCount: 2
Fore
SplineSet
100 100 m 1
 100 204 l 1
 199 204 l 1
 199 303 l 1
 298 303 l 1
 298 402 l 1
 397 402 l 1
 397 501 l 1
 496 501 l 1
 496 600 l 1
 600 600 l 1
 600 496 l 1
 501 496 l 1
 501 397 l 1
 402 397 l 1
 402 298 l 1
 303 298 l 1
 303 199 l 1
 204 199 l 1
 204 100 l 1
 100 100 l 1
EndSplineSet
Validated: 1
EndChar

StartChar: zero
Encoding: 16 48 19
Width: 800
Flags: W
LayerCount: 2
Fore
SplineSet
204 204 m 1
 303 204 l 1
 303 104 l 1
 496 104 l 1
 496 496 l 1
 397 496 l 1
 397 596 l 1
 204 596 l 1
 204 204 l 1
99 99 m 1
 99 199 l 1
 0 199 l 1
 0 501 l 1
 99 501 l 1
 99 601 l 1
 199 601 l 1
 199 700 l 1
 501 700 l 1
 501 601 l 1
 601 601 l 1
 601 501 l 1
 700 501 l 1
 700 199 l 1
 601 199 l 1
 601 99 l 1
 501 99 l 1
 501 0 l 1
 199 0 l 1
 199 99 l 1
 99 99 l 1
EndSplineSet
Validated: 1
EndChar

StartChar: one
Encoding: 17 49 20
Width: 700
Flags: W
LayerCount: 2
Fore
SplineSet
0 0 m 1
 0 104 l 1
 198 104 l 1
 198 496 l 1
 99 496 l 1
 99 601 l 1
 198 601 l 1
 198 700 l 1
 402 700 l 1
 402 104 l 1
 600 104 l 1
 600 0 l 1
 0 0 l 1
EndSplineSet
Validated: 1
EndChar

StartChar: two
Encoding: 18 50 21
Width: 800
Flags: W
LayerCount: 2
Fore
SplineSet
0 204 m 1
 99 204 l 1
 99 303 l 1
 199 303 l 1
 199 402 l 1
 397 402 l 1
 397 501 l 1
 496 501 l 1
 496 596 l 1
 204 596 l 1
 204 496 l 1
 0 496 l 1
 0 601 l 1
 99 601 l 1
 99 700 l 1
 601 700 l 1
 601 601 l 1
 700 601 l 1
 700 397 l 1
 601 397 l 1
 601 298 l 1
 501 298 l 1
 501 199 l 1
 303 199 l 1
 303 104 l 1
 700 104 l 1
 700 0 l 1
 0 0 l 1
 0 204 l 1
EndSplineSet
Validated: 1
EndChar

StartChar: three
Encoding: 19 51 22
Width: 800
Flags: W
LayerCount: 2
Fore
SplineSet
0 99 m 1
 0 204 l 1
 204 204 l 1
 204 104 l 1
 496 104 l 1
 496 298 l 1
 199 298 l 1
 199 402 l 1
 298 402 l 1
 298 501 l 1
 397 501 l 1
 397 596 l 1
 99 596 l 1
 99 700 l 1
 700 700 l 1
 700 596 l 1
 601 596 l 1
 601 496 l 1
 501 496 l 1
 501 402 l 1
 601 402 l 1
 601 303 l 1
 700 303 l 1
 700 99 l 1
 601 99 l 1
 601 0 l 1
 99 0 l 1
 99 99 l 1
 0 99 l 1
EndSplineSet
Validated: 1
EndChar

StartChar: four
Encoding: 20 52 23
Width: 800
Flags: W
LayerCount: 2
Fore
SplineSet
204 397 m 1
 204 303 l 1
 397 303 l 1
 397 496 l 1
 303 496 l 1
 303 397 l 1
 204 397 l 1
0 199 m 1
 0 402 l 1
 99 402 l 1
 99 501 l 1
 199 501 l 1
 199 601 l 1
 298 601 l 1
 298 700 l 1
 601 700 l 1
 601 303 l 1
 700 303 l 1
 700 199 l 1
 601 199 l 1
 601 0 l 1
 397 0 l 1
 397 199 l 1
 0 199 l 1
EndSplineSet
Validated: 1
EndChar

StartChar: five
Encoding: 21 53 24
Width: 800
Flags: W
LayerCount: 2
Fore
SplineSet
0 99 m 1
 0 204 l 1
 204 204 l 1
 204 104 l 1
 496 104 l 1
 496 397 l 1
 0 397 l 1
 0 700 l 1
 700 700 l 1
 700 596 l 1
 204 596 l 1
 204 501 l 1
 601 501 l 1
 601 402 l 1
 700 402 l 1
 700 99 l 1
 601 99 l 1
 601 0 l 1
 99 0 l 1
 99 99 l 1
 0 99 l 1
EndSplineSet
Validated: 1
EndChar

StartChar: six
Encoding: 22 54 25
Width: 800
Flags: W
LayerCount: 2
Fore
SplineSet
204 104 m 1
 496 104 l 1
 496 298 l 1
 204 298 l 1
 204 104 l 1
99 0 m 1
 99 99 l 1
 0 99 l 1
 0 501 l 1
 99 501 l 1
 99 601 l 1
 199 601 l 1
 199 700 l 1
 700 700 l 1
 700 596 l 1
 303 596 l 1
 303 496 l 1
 204 496 l 1
 204 402 l 1
 601 402 l 1
 601 303 l 1
 700 303 l 1
 700 99 l 1
 601 99 l 1
 601 0 l 1
 99 0 l 1
EndSplineSet
Validated: 1
EndChar

StartChar: seven
Encoding: 23 55 26
Width: 800
Flags: W
LayerCount: 2
Fore
SplineSet
199 0 m 1
 199 303 l 1
 298 303 l 1
 298 402 l 1
 397 402 l 1
 397 501 l 1
 496 501 l 1
 496 596 l 1
 204 596 l 1
 204 496 l 1
 0 496 l 1
 0 700 l 1
 700 700 l 1
 700 496 l 1
 601 496 l 1
 601 397 l 1
 501 397 l 1
 501 298 l 1
 402 298 l 1
 402 0 l 1
 199 0 l 1
EndSplineSet
Validated: 1
EndChar

StartChar: eight
Encoding: 24 56 27
Width: 800
Flags: W
LayerCount: 2
Fore
SplineSet
204 596 m 1
 204 501 l 1
 303 501 l 1
 303 402 l 1
 496 402 l 1
 496 596 l 1
 204 596 l 1
104 298 m 1
 104 104 l 1
 496 104 l 1
 496 298 l 1
 104 298 l 1
0 99 m 1
 0 303 l 1
 99 303 l 1
 99 397 l 1
 0 397 l 1
 0 601 l 1
 99 601 l 1
 99 700 l 1
 501 700 l 1
 501 601 l 1
 601 601 l 1
 601 397 l 1
 501 397 l 1
 501 303 l 1
 700 303 l 1
 700 99 l 1
 601 99 l 1
 601 0 l 1
 99 0 l 1
 99 99 l 1
 0 99 l 1
EndSplineSet
Validated: 1
EndChar

StartChar: nine
Encoding: 25 57 28
Width: 800
Flags: W
LayerCount: 2
Fore
SplineSet
204 596 m 1
 204 402 l 1
 496 402 l 1
 496 596 l 1
 204 596 l 1
99 0 m 1
 99 104 l 1
 397 104 l 1
 397 204 l 1
 496 204 l 1
 496 298 l 1
 99 298 l 1
 99 397 l 1
 0 397 l 1
 0 601 l 1
 99 601 l 1
 99 700 l 1
 601 700 l 1
 601 601 l 1
 700 601 l 1
 700 199 l 1
 601 199 l 1
 601 99 l 1
 501 99 l 1
 501 0 l 1
 99 0 l 1
EndSplineSet
Validated: 1
EndChar

StartChar: colon
Encoding: 26 58 29
Width: 300
Flags: W
LayerCount: 2
Fore
SplineSet
0 297 m 1
 0 500 l 1
 200 500 l 1
 200 297 l 1
 0 297 l 1
0 0 m 1
 0 203 l 1
 200 203 l 1
 200 0 l 1
 0 0 l 1
EndSplineSet
Validated: 1
EndChar

StartChar: semicolon
Encoding: 27 59 30
Width: 400
Flags: W
LayerCount: 2
Fore
SplineSet
98 297 m 1
 98 500 l 1
 300 500 l 1
 300 297 l 1
 98 297 l 1
0 -100 m 1
 0 4 l 1
 98 4 l 1
 98 202 l 1
 300 202 l 1
 300 -1 l 1
 202 -1 l 1
 202 -100 l 1
 0 -100 l 1
EndSplineSet
Validated: 1
EndChar

StartChar: less
Encoding: 28 60 31
Width: 500
Flags: W
LayerCount: 2
Fore
SplineSet
198 100 m 1
 198 199 l 1
 99 199 l 1
 99 298 l 1
 0 298 l 1
 0 402 l 1
 99 402 l 1
 99 501 l 1
 198 501 l 1
 198 600 l 1
 400 600 l 1
 400 496 l 1
 301 496 l 1
 301 397 l 1
 202 397 l 1
 202 303 l 1
 301 303 l 1
 301 204 l 1
 400 204 l 1
 400 100 l 1
 198 100 l 1
EndSplineSet
Validated: 1
EndChar

StartChar: equal
Encoding: 29 61 32
Width: 600
Flags: W
LayerCount: 2
Fore
SplineSet
0 496 m 1
 0 600 l 1
 500 600 l 1
 500 496 l 1
 0 496 l 1
0 100 m 1
 0 204 l 1
 500 204 l 1
 500 100 l 1
 0 100 l 1
EndSplineSet
Validated: 1
EndChar

StartChar: greater
Encoding: 30 62 33
Width: 500
Flags: W
LayerCount: 2
Fore
SplineSet
0 100 m 1
 0 204 l 1
 99 204 l 1
 99 303 l 1
 198 303 l 1
 198 397 l 1
 99 397 l 1
 99 496 l 1
 0 496 l 1
 0 600 l 1
 202 600 l 1
 202 501 l 1
 301 501 l 1
 301 402 l 1
 400 402 l 1
 400 298 l 1
 301 298 l 1
 301 199 l 1
 202 199 l 1
 202 100 l 1
 0 100 l 1
EndSplineSet
Validated: 1
EndChar

StartChar: question
Encoding: 31 63 34
Width: 800
Flags: W
LayerCount: 2
Fore
SplineSet
199 -1 m 1
 199 103 l 1
 298 103 l 1
 298 203 l 1
 397 203 l 1
 397 302 l 1
 496 302 l 1
 496 596 l 1
 204 596 l 1
 204 397 l 1
 0 397 l 1
 0 601 l 1
 99 601 l 1
 99 700 l 1
 601 700 l 1
 601 601 l 1
 700 601 l 1
 700 297 l 1
 601 297 l 1
 601 198 l 1
 501 198 l 1
 501 98 l 1
 402 98 l 1
 402 -1 l 1
 199 -1 l 1
199 -200 m 1
 199 -96 l 1
 402 -96 l 1
 402 -200 l 1
 199 -200 l 1
EndSplineSet
Validated: 1
EndChar

StartChar: at
Encoding: 32 64 35
Width: 900
Flags: W
LayerCount: 2
Fore
SplineSet
303 203 m 1
 497 203 l 1
 497 397 l 1
 303 397 l 1
 303 203 l 1
99 -1 m 1
 99 99 l 1
 0 99 l 1
 0 501 l 1
 99 501 l 1
 99 601 l 1
 199 601 l 1
 199 700 l 1
 601 700 l 1
 601 601 l 1
 701 601 l 1
 701 501 l 1
 800 501 l 1
 800 99 l 1
 701 99 l 1
 701 -1 l 1
 596 -1 l 1
 596 99 l 1
 298 99 l 1
 298 198 l 1
 199 198 l 1
 199 402 l 1
 298 402 l 1
 298 501 l 1
 502 501 l 1
 502 402 l 1
 601 402 l 1
 601 104 l 1
 696 104 l 1
 696 496 l 1
 596 496 l 1
 596 596 l 1
 204 596 l 1
 204 496 l 1
 104 496 l 1
 104 104 l 1
 204 104 l 1
 204 4 l 1
 502 4 l 1
 502 -100 l 1
 199 -100 l 1
 199 -1 l 1
 99 -1 l 1
EndSplineSet
Validated: 1
EndChar

StartChar: A
Encoding: 33 65 36
Width: 800
Flags: W
HStem: 199 151<228 520> 496 204<228 317 438 520> 596 104<317 438>
VStem: 24 204<46 199 350 496> 520 203<46 199 349 496>
LayerCount: 2
Fore
SplineSet
228 496 m 1xd8
 228 350 l 1
 522 349 l 1
 520 496 l 1
 438 496 l 1xd8
 438 596 l 1
 317 596 l 1xb8
 317 496 l 1
 228 496 l 1xd8
23 46 m 1
 24 501 l 1
 123 501 l 1
 123 601 l 1
 223 601 l 1
 223 700 l 1
 525 700 l 1xb8
 525 601 l 1
 625 601 l 1
 625 501 l 1
 724 501 l 1
 723 46 l 1
 519 46 l 1
 520 199 l 1
 228 199 l 1
 227 46 l 1
 23 46 l 1
EndSplineSet
Validated: 1
EndChar

StartChar: B
Encoding: 34 66 37
Width: 800
Flags: W
LayerCount: 2
Fore
SplineSet
204 596 m 1
 204 402 l 1
 496 402 l 1
 496 596 l 1
 204 596 l 1
601 99 m 1
 601 0 l 1
 0 0 l 1
 0 700 l 1
 601 700 l 1
 601 601 l 1
 700 601 l 1
 700 397 l 1
 501 397 l 1
 501 303 l 1
 700 303 l 1
 700 99 l 1
 601 99 l 1
204 104 m 1
 496 104 l 1
 496 298 l 1
 204 298 l 1
 204 104 l 1
EndSplineSet
Validated: 1
EndChar

StartChar: C
Encoding: 35 67 38
Width: 800
Flags: W
LayerCount: 2
Fore
SplineSet
99 99 m 1
 99 199 l 1
 0 199 l 1
 0 501 l 1
 99 501 l 1
 99 601 l 1
 199 601 l 1
 199 700 l 1
 601 700 l 1
 601 601 l 1
 700 601 l 1
 700 496 l 1
 496 496 l 1
 496 596 l 1
 303 596 l 1
 303 496 l 1
 204 496 l 1
 204 204 l 1
 303 204 l 1
 303 104 l 1
 496 104 l 1
 496 204 l 1
 700 204 l 1
 700 99 l 1
 601 99 l 1
 601 0 l 1
 199 0 l 1
 199 99 l 1
 99 99 l 1
EndSplineSet
Validated: 1
EndChar

StartChar: D
Encoding: 36 68 39
Width: 800
Flags: W
LayerCount: 2
Fore
SplineSet
501 99 m 1
 501 0 l 1
 0 0 l 1
 0 700 l 1
 501 700 l 1
 501 601 l 1
 601 601 l 1
 601 501 l 1
 700 501 l 1
 700 199 l 1
 601 199 l 1
 601 99 l 1
 501 99 l 1
204 104 m 1
 397 104 l 1
 397 204 l 1
 496 204 l 1
 496 496 l 1
 397 496 l 1
 397 596 l 1
 204 596 l 1
 204 104 l 1
EndSplineSet
Validated: 1
EndChar

StartChar: E
Encoding: 37 69 40
Width: 800
Flags: W
LayerCount: 2
Fore
SplineSet
0 0 m 1
 0 700 l 1
 700 700 l 1
 700 596 l 1
 204 596 l 1
 204 402 l 1
 601 402 l 1
 601 298 l 1
 204 298 l 1
 204 104 l 1
 700 104 l 1
 700 0 l 1
 0 0 l 1
EndSplineSet
Validated: 1
EndChar

StartChar: F
Encoding: 38 70 41
Width: 800
Flags: W
LayerCount: 2
Fore
SplineSet
0 0 m 1
 0 700 l 1
 700 700 l 1
 700 596 l 1
 204 596 l 1
 204 402 l 1
 601 402 l 1
 601 298 l 1
 204 298 l 1
 204 0 l 1
 0 0 l 1
EndSplineSet
Validated: 1
EndChar

StartChar: G
Encoding: 39 71 42
Width: 800
Flags: W
LayerCount: 2
Fore
SplineSet
99 99 m 1
 99 199 l 1
 0 199 l 1
 0 501 l 1
 99 501 l 1
 99 601 l 1
 199 601 l 1
 199 700 l 1
 700 700 l 1
 700 596 l 1
 303 596 l 1
 303 496 l 1
 204 496 l 1
 204 204 l 1
 303 204 l 1
 303 104 l 1
 496 104 l 1
 496 298 l 1
 397 298 l 1
 397 402 l 1
 700 402 l 1
 700 0 l 1
 199 0 l 1
 199 99 l 1
 99 99 l 1
EndSplineSet
Validated: 1
EndChar

StartChar: H
Encoding: 40 72 43
Width: 800
Flags: W
LayerCount: 2
Fore
SplineSet
0 0 m 1
 0 700 l 1
 204 700 l 1
 204 402 l 1
 496 402 l 1
 496 700 l 1
 700 700 l 1
 700 0 l 1
 496 0 l 1
 496 298 l 1
 204 298 l 1
 204 0 l 1
 0 0 l 1
EndSplineSet
Validated: 1
EndChar

StartChar: I
Encoding: 41 73 44
Width: 700
Flags: W
LayerCount: 2
Fore
SplineSet
0 0 m 1
 0 104 l 1
 198 104 l 1
 198 596 l 1
 0 596 l 1
 0 700 l 1
 600 700 l 1
 600 596 l 1
 402 596 l 1
 402 104 l 1
 600 104 l 1
 600 0 l 1
 0 0 l 1
EndSplineSet
Validated: 1
EndChar

StartChar: J
Encoding: 42 74 45
Width: 800
Flags: W
LayerCount: 2
Fore
SplineSet
0 99 m 1
 0 303 l 1
 204 303 l 1
 204 104 l 1
 496 104 l 1
 496 700 l 1
 700 700 l 1
 700 99 l 1
 601 99 l 1
 601 0 l 1
 99 0 l 1
 99 99 l 1
 0 99 l 1
EndSplineSet
Validated: 1
EndChar

StartChar: K
Encoding: 43 75 46
Width: 800
Flags: W
LayerCount: 2
Fore
SplineSet
0 0 m 1
 0 700 l 1
 204 700 l 1
 204 402 l 1
 298 402 l 1
 298 501 l 1
 397 501 l 1
 397 601 l 1
 496 601 l 1
 496 700 l 1
 700 700 l 1
 700 596 l 1
 601 596 l 1
 601 496 l 1
 501 496 l 1
 501 397 l 1
 402 397 l 1
 402 303 l 1
 501 303 l 1
 501 204 l 1
 601 204 l 1
 601 104 l 1
 700 104 l 1
 700 0 l 1
 397 0 l 1
 397 99 l 1
 298 99 l 1
 298 199 l 1
 204 199 l 1
 204 0 l 1
 0 0 l 1
EndSplineSet
Validated: 1
EndChar

StartChar: L
Encoding: 44 76 47
Width: 800
Flags: W
LayerCount: 2
Fore
SplineSet
0 0 m 1
 0 700 l 1
 204 700 l 1
 204 104 l 1
 700 104 l 1
 700 0 l 1
 0 0 l 1
EndSplineSet
Validated: 1
EndChar

StartChar: M
Encoding: 45 77 48
Width: 800
Flags: W
LayerCount: 2
Fore
SplineSet
0 0 m 1
 0 700 l 1
 204 700 l 1
 204 601 l 1
 303 601 l 1
 303 501 l 1
 397 501 l 1
 397 601 l 1
 496 601 l 1
 496 700 l 1
 700 700 l 1
 700 0 l 1
 496 0 l 1
 496 298 l 1
 402 298 l 1
 402 199 l 1
 298 199 l 1
 298 298 l 1
 204 298 l 1
 204 0 l 1
 0 0 l 1
EndSplineSet
Validated: 1
EndChar

StartChar: N
Encoding: 46 78 49
Width: 800
Flags: W
LayerCount: 2
Fore
SplineSet
0 0 m 1
 0 700 l 1
 204 700 l 1
 204 601 l 1
 303 601 l 1
 303 501 l 1
 402 501 l 1
 402 402 l 1
 496 402 l 1
 496 700 l 1
 700 700 l 1
 700 0 l 1
 496 0 l 1
 496 99 l 1
 397 99 l 1
 397 199 l 1
 298 199 l 1
 298 298 l 1
 204 298 l 1
 204 0 l 1
 0 0 l 1
EndSplineSet
Validated: 1
EndChar

StartChar: O
Encoding: 47 79 50
Width: 800
Flags: W
LayerCount: 2
Fore
SplineSet
204 104 m 1
 496 104 l 1
 496 596 l 1
 204 596 l 1
 204 104 l 1
99 0 m 1
 99 99 l 1
 0 99 l 1
 0 601 l 1
 99 601 l 1
 99 700 l 1
 601 700 l 1
 601 601 l 1
 700 601 l 1
 700 99 l 1
 601 99 l 1
 601 0 l 1
 99 0 l 1
EndSplineSet
Validated: 1
EndChar

StartChar: P
Encoding: 48 80 51
Width: 800
Flags: W
LayerCount: 2
Fore
SplineSet
204 596 m 1
 204 303 l 1
 496 303 l 1
 496 596 l 1
 204 596 l 1
0 0 m 1
 0 700 l 1
 601 700 l 1
 601 601 l 1
 700 601 l 1
 700 298 l 1
 601 298 l 1
 601 199 l 1
 204 199 l 1
 204 0 l 1
 0 0 l 1
EndSplineSet
Validated: 1
EndChar

StartChar: Q
Encoding: 49 81 52
Width: 800
Flags: W
LayerCount: 2
Fore
SplineSet
204 104 m 1
 397 104 l 1
 397 199 l 1
 298 199 l 1
 298 303 l 1
 496 303 l 1
 496 596 l 1
 204 596 l 1
 204 104 l 1
99 0 m 1
 99 99 l 1
 0 99 l 1
 0 601 l 1
 99 601 l 1
 99 700 l 1
 601 700 l 1
 601 601 l 1
 700 601 l 1
 700 199 l 1
 601 199 l 1
 601 104 l 1
 700 104 l 1
 700 0 l 1
 596 0 l 1
 596 99 l 1
 501 99 l 1
 501 0 l 1
 99 0 l 1
EndSplineSet
Validated: 1
EndChar

StartChar: R
Encoding: 50 82 53
Width: 800
Flags: W
LayerCount: 2
Fore
SplineSet
204 596 m 1
 204 303 l 1
 397 303 l 1
 397 402 l 1
 496 402 l 1
 496 596 l 1
 204 596 l 1
0 0 m 1
 0 700 l 1
 601 700 l 1
 601 601 l 1
 700 601 l 1
 700 298 l 1
 501 298 l 1
 501 204 l 1
 601 204 l 1
 601 104 l 1
 700 104 l 1
 700 0 l 1
 397 0 l 1
 397 99 l 1
 298 99 l 1
 298 199 l 1
 204 199 l 1
 204 0 l 1
 0 0 l 1
EndSplineSet
Validated: 1
EndChar

StartChar: S
Encoding: 51 83 54
Width: 800
Flags: W
LayerCount: 2
Fore
SplineSet
0 99 m 1
 0 204 l 1
 204 204 l 1
 204 104 l 1
 496 104 l 1
 496 298 l 1
 99 298 l 1
 99 397 l 1
 0 397 l 1
 0 601 l 1
 99 601 l 1
 99 700 l 1
 501 700 l 1
 501 601 l 1
 601 601 l 1
 601 496 l 1
 397 496 l 1
 397 596 l 1
 204 596 l 1
 204 402 l 1
 601 402 l 1
 601 303 l 1
 700 303 l 1
 700 99 l 1
 601 99 l 1
 601 0 l 1
 99 0 l 1
 99 99 l 1
 0 99 l 1
EndSplineSet
Validated: 1
EndChar

StartChar: T
Encoding: 52 84 55
Width: 700
Flags: W
LayerCount: 2
Fore
SplineSet
198 0 m 1
 198 596 l 1
 0 596 l 1
 0 700 l 1
 600 700 l 1
 600 596 l 1
 402 596 l 1
 402 0 l 1
 198 0 l 1
EndSplineSet
Validated: 1
EndChar

StartChar: U
Encoding: 53 85 56
Width: 800
Flags: W
LayerCount: 2
Fore
SplineSet
99 0 m 1
 99 99 l 1
 0 99 l 1
 0 700 l 1
 204 700 l 1
 204 104 l 1
 496 104 l 1
 496 700 l 1
 700 700 l 1
 700 99 l 1
 601 99 l 1
 601 0 l 1
 99 0 l 1
EndSplineSet
Validated: 1
EndChar

StartChar: V
Encoding: 54 86 57
Width: 800
Flags: W
LayerCount: 2
Fore
SplineSet
298 0 m 1
 298 99 l 1
 199 99 l 1
 199 199 l 1
 99 199 l 1
 99 298 l 1
 0 298 l 1
 0 700 l 1
 204 700 l 1
 204 402 l 1
 303 402 l 1
 303 303 l 1
 397 303 l 1
 397 402 l 1
 496 402 l 1
 496 700 l 1
 700 700 l 1
 700 298 l 1
 601 298 l 1
 601 199 l 1
 501 199 l 1
 501 99 l 1
 402 99 l 1
 402 0 l 1
 298 0 l 1
EndSplineSet
Validated: 1
EndChar

StartChar: W
Encoding: 55 87 58
Width: 800
Flags: W
LayerCount: 2
Fore
SplineSet
0 0 m 1
 0 700 l 1
 204 700 l 1
 204 402 l 1
 298 402 l 1
 298 501 l 1
 402 501 l 1
 402 402 l 1
 496 402 l 1
 496 700 l 1
 700 700 l 1
 700 0 l 1
 496 0 l 1
 496 99 l 1
 397 99 l 1
 397 199 l 1
 303 199 l 1
 303 99 l 1
 204 99 l 1
 204 0 l 1
 0 0 l 1
EndSplineSet
Validated: 1
EndChar

StartChar: X
Encoding: 56 88 59
Width: 800
Flags: W
LayerCount: 2
Fore
SplineSet
0 0 m 1
 0 204 l 1
 99 204 l 1
 99 303 l 1
 199 303 l 1
 199 496 l 1
 0 496 l 1
 0 700 l 1
 204 700 l 1
 204 601 l 1
 303 601 l 1
 303 501 l 1
 397 501 l 1
 397 601 l 1
 496 601 l 1
 496 700 l 1
 700 700 l 1
 700 496 l 1
 601 496 l 1
 601 397 l 1
 501 397 l 1
 501 303 l 1
 601 303 l 1
 601 204 l 1
 700 204 l 1
 700 0 l 1
 496 0 l 1
 496 99 l 1
 397 99 l 1
 397 199 l 1
 303 199 l 1
 303 99 l 1
 204 99 l 1
 204 0 l 1
 0 0 l 1
EndSplineSet
Validated: 1
EndChar

StartChar: Y
Encoding: 57 89 60
Width: 700
Flags: W
LayerCount: 2
Fore
SplineSet
198 0 m 1
 198 298 l 1
 99 298 l 1
 99 397 l 1
 0 397 l 1
 0 700 l 1
 203 700 l 1
 203 402 l 1
 397 402 l 1
 397 700 l 1
 600 700 l 1
 600 397 l 1
 501 397 l 1
 501 298 l 1
 402 298 l 1
 402 0 l 1
 198 0 l 1
EndSplineSet
Validated: 1
EndChar

StartChar: Z
Encoding: 58 90 61
Width: 800
Flags: W
LayerCount: 2
Fore
SplineSet
0 204 m 1
 99 204 l 1
 99 303 l 1
 199 303 l 1
 199 402 l 1
 298 402 l 1
 298 501 l 1
 397 501 l 1
 397 596 l 1
 0 596 l 1
 0 700 l 1
 700 700 l 1
 700 496 l 1
 601 496 l 1
 601 397 l 1
 501 397 l 1
 501 298 l 1
 402 298 l 1
 402 199 l 1
 303 199 l 1
 303 104 l 1
 700 104 l 1
 700 0 l 1
 0 0 l 1
 0 204 l 1
EndSplineSet
Validated: 1
EndChar

StartChar: backslash
Encoding: 60 92 63
Width: 700
Flags: W
LayerCount: 2
Fore
SplineSet
496 100 m 1
 496 199 l 1
 397 199 l 1
 397 298 l 1
 298 298 l 1
 298 397 l 1
 199 397 l 1
 199 496 l 1
 100 496 l 1
 100 600 l 1
 204 600 l 1
 204 501 l 1
 303 501 l 1
 303 402 l 1
 402 402 l 1
 402 303 l 1
 501 303 l 1
 501 204 l 1
 600 204 l 1
 600 100 l 1
 496 100 l 1
EndSplineSet
Validated: 1
EndChar

StartChar: asciicircum
Encoding: 62 94 65
Width: 700
Flags: W
LayerCount: 2
Fore
SplineSet
0 400 m 1
 0 503 l 1
 99 503 l 1
 99 602 l 1
 198 602 l 1
 198 700 l 1
 402 700 l 1
 402 602 l 1
 501 602 l 1
 501 503 l 1
 600 503 l 1
 600 400 l 1
 397 400 l 1
 397 498 l 1
 203 498 l 1
 203 400 l 1
 0 400 l 1
EndSplineSet
Validated: 1
EndChar

StartChar: underscore
Encoding: 63 95 66
Width: 700
Flags: W
LayerCount: 2
Fore
SplineSet
0 -100 m 1
 0 0 l 1
 700 0 l 1
 700 -100 l 1
 0 -100 l 1
EndSplineSet
Validated: 1
EndChar

StartChar: grave
Encoding: 64 96 67
Width: 500
Flags: W
LayerCount: 2
Fore
SplineSet
99 500 m 1
 99 598 l 1
 0 598 l 1
 0 700 l 1
 301 700 l 1
 301 602 l 1
 400 602 l 1
 400 500 l 1
 99 500 l 1
EndSplineSet
Validated: 1
EndChar

StartChar: a
Encoding: 65 97 68
Width: 700
Flags: W
LayerCount: 2
Fore
SplineSet
203 298 m 1
 203 104 l 1
 397 104 l 1
 397 298 l 1
 203 298 l 1
0 99 m 1
 0 302 l 1
 99 302 l 1
 99 402 l 1
 397 402 l 1
 397 496 l 1
 99 496 l 1
 99 600 l 1
 501 600 l 1
 501 501 l 1
 600 501 l 1
 600 99 l 1
 501 99 l 1
 501 0 l 1
 99 0 l 1
 99 99 l 1
 0 99 l 1
EndSplineSet
Validated: 1
EndChar

StartChar: b
Encoding: 66 98 69
Width: 700
Flags: W
LayerCount: 2
Fore
SplineSet
501 99 m 1
 501 0 l 1
 0 0 l 1
 0 700 l 1
 203 700 l 1
 203 601 l 1
 501 601 l 1
 501 501 l 1
 600 501 l 1
 600 99 l 1
 501 99 l 1
203 104 m 1
 397 104 l 1
 397 496 l 1
 203 496 l 1
 203 104 l 1
EndSplineSet
Validated: 1
EndChar

StartChar: c
Encoding: 67 99 70
Width: 700
Flags: W
LayerCount: 2
Fore
SplineSet
99 0 m 1
 99 99 l 1
 0 99 l 1
 0 501 l 1
 99 501 l 1
 99 600 l 1
 501 600 l 1
 501 501 l 1
 600 501 l 1
 600 397 l 1
 397 397 l 1
 397 496 l 1
 203 496 l 1
 203 104 l 1
 397 104 l 1
 397 203 l 1
 600 203 l 1
 600 99 l 1
 501 99 l 1
 501 0 l 1
 99 0 l 1
EndSplineSet
Validated: 1
EndChar

StartChar: d
Encoding: 68 100 71
Width: 700
Flags: W
LayerCount: 2
Fore
SplineSet
203 104 m 1
 397 104 l 1
 397 496 l 1
 203 496 l 1
 203 104 l 1
99 0 m 1
 99 99 l 1
 0 99 l 1
 0 501 l 1
 99 501 l 1
 99 601 l 1
 397 601 l 1
 397 700 l 1
 600 700 l 1
 600 0 l 1
 99 0 l 1
EndSplineSet
Validated: 1
EndChar

StartChar: e
Encoding: 69 101 72
Width: 700
Flags: W
LayerCount: 2
Fore
SplineSet
203 496 m 1
 203 302 l 1
 397 302 l 1
 397 496 l 1
 203 496 l 1
99 0 m 1
 99 99 l 1
 0 99 l 1
 0 501 l 1
 99 501 l 1
 99 600 l 1
 501 600 l 1
 501 501 l 1
 600 501 l 1
 600 198 l 1
 203 198 l 1
 203 104 l 1
 501 104 l 1
 501 0 l 1
 99 0 l 1
EndSplineSet
Validated: 1
EndChar

StartChar: f
Encoding: 70 102 73
Width: 600
Flags: W
LayerCount: 2
Fore
SplineSet
99 0 m 1
 99 397 l 1
 0 397 l 1
 0 501 l 1
 99 501 l 1
 99 601 l 1
 198 601 l 1
 198 700 l 1
 500 700 l 1
 500 596 l 1
 302 596 l 1
 302 501 l 1
 401 501 l 1
 401 397 l 1
 302 397 l 1
 302 0 l 1
 99 0 l 1
EndSplineSet
Validated: 1
EndChar

StartChar: g
Encoding: 71 103 74
Width: 700
Flags: W
LayerCount: 2
Fore
SplineSet
203 103 m 1
 397 103 l 1
 397 496 l 1
 203 496 l 1
 203 103 l 1
99 -200 m 1
 99 -96 l 1
 397 -96 l 1
 397 -1 l 1
 99 -1 l 1
 99 98 l 1
 0 98 l 1
 0 501 l 1
 99 501 l 1
 99 600 l 1
 600 600 l 1
 600 -101 l 1
 501 -101 l 1
 501 -200 l 1
 99 -200 l 1
EndSplineSet
Validated: 1
EndChar

StartChar: h
Encoding: 72 104 75
Width: 700
Flags: W
LayerCount: 2
Fore
SplineSet
0 0 m 1
 0 700 l 1
 203 700 l 1
 203 601 l 1
 501 601 l 1
 501 501 l 1
 600 501 l 1
 600 0 l 1
 397 0 l 1
 397 496 l 1
 302 496 l 1
 302 397 l 1
 203 397 l 1
 203 0 l 1
 0 0 l 1
EndSplineSet
Validated: 1
EndChar

StartChar: i
Encoding: 73 105 76
Width: 400
Flags: W
LayerCount: 2
Fore
SplineSet
98 696 m 1
 98 800 l 1
 300 800 l 1
 300 696 l 1
 98 696 l 1
98 0 m 1
 98 497 l 1
 0 497 l 1
 0 601 l 1
 300 601 l 1
 300 0 l 1
 98 0 l 1
EndSplineSet
Validated: 1
EndChar

StartChar: j
Encoding: 74 106 77
Width: 500
Flags: W
LayerCount: 2
Fore
SplineSet
198 696 m 1
 198 800 l 1
 400 800 l 1
 400 696 l 1
 198 696 l 1
0 -200 m 1
 0 -96 l 1
 198 -96 l 1
 198 497 l 1
 99 497 l 1
 99 601 l 1
 400 601 l 1
 400 -100 l 1
 301 -100 l 1
 301 -200 l 1
 0 -200 l 1
EndSplineSet
Validated: 1
EndChar

StartChar: k
Encoding: 75 107 78
Width: 700
Flags: W
LayerCount: 2
Fore
SplineSet
0 0 m 1
 0 700 l 1
 203 700 l 1
 203 303 l 1
 298 303 l 1
 298 402 l 1
 397 402 l 1
 397 601 l 1
 600 601 l 1
 600 397 l 1
 501 397 l 1
 501 298 l 1
 402 298 l 1
 402 204 l 1
 501 204 l 1
 501 104 l 1
 600 104 l 1
 600 0 l 1
 397 0 l 1
 397 99 l 1
 298 99 l 1
 298 199 l 1
 203 199 l 1
 203 0 l 1
 0 0 l 1
EndSplineSet
Validated: 1
EndChar

StartChar: l
Encoding: 76 108 79
Width: 400
Flags: W
LayerCount: 2
Fore
SplineSet
98 0 m 1
 98 596 l 1
 0 596 l 1
 0 700 l 1
 300 700 l 1
 300 0 l 1
 98 0 l 1
EndSplineSet
Validated: 1
EndChar

StartChar: m
Encoding: 77 109 80
Width: 800
Flags: W
LayerCount: 2
Fore
SplineSet
0 0 m 1
 0 600 l 1
 303 600 l 1
 303 501 l 1
 397 501 l 1
 397 600 l 1
 601 600 l 1
 601 501 l 1
 700 501 l 1
 700 0 l 1
 496 0 l 1
 496 198 l 1
 402 198 l 1
 402 99 l 1
 298 99 l 1
 298 198 l 1
 204 198 l 1
 204 0 l 1
 0 0 l 1
EndSplineSet
Validated: 1
EndChar

StartChar: n
Encoding: 78 110 81
Width: 700
Flags: W
LayerCount: 2
Fore
SplineSet
0 0 m 1
 0 600 l 1
 501 600 l 1
 501 501 l 1
 600 501 l 1
 600 0 l 1
 397 0 l 1
 397 496 l 1
 302 496 l 1
 302 397 l 1
 203 397 l 1
 203 0 l 1
 0 0 l 1
EndSplineSet
Validated: 1
EndChar

StartChar: o
Encoding: 79 111 82
Width: 700
Flags: W
LayerCount: 2
Fore
SplineSet
203 104 m 1
 397 104 l 1
 397 496 l 1
 203 496 l 1
 203 104 l 1
99 0 m 1
 99 99 l 1
 0 99 l 1
 0 501 l 1
 99 501 l 1
 99 600 l 1
 501 600 l 1
 501 501 l 1
 600 501 l 1
 600 99 l 1
 501 99 l 1
 501 0 l 1
 99 0 l 1
EndSplineSet
Validated: 1
EndChar

StartChar: p
Encoding: 80 112 83
Width: 700
Flags: W
LayerCount: 2
Fore
SplineSet
203 496 m 1
 203 103 l 1
 397 103 l 1
 397 496 l 1
 203 496 l 1
0 -200 m 1
 0 600 l 1
 501 600 l 1
 501 501 l 1
 600 501 l 1
 600 98 l 1
 501 98 l 1
 501 -1 l 1
 203 -1 l 1
 203 -200 l 1
 0 -200 l 1
EndSplineSet
Validated: 1
EndChar

StartChar: q
Encoding: 81 113 84
Width: 700
Flags: W
LayerCount: 2
Fore
SplineSet
203 103 m 1
 397 103 l 1
 397 496 l 1
 203 496 l 1
 203 103 l 1
99 -1 m 1
 99 98 l 1
 0 98 l 1
 0 501 l 1
 99 501 l 1
 99 600 l 1
 600 600 l 1
 600 -200 l 1
 397 -200 l 1
 397 -1 l 1
 99 -1 l 1
EndSplineSet
Validated: 1
EndChar

StartChar: r
Encoding: 82 114 85
Width: 700
Flags: W
LayerCount: 2
Fore
SplineSet
0 0 m 1
 0 600 l 1
 600 600 l 1
 600 496 l 1
 302 496 l 1
 302 397 l 1
 203 397 l 1
 203 0 l 1
 0 0 l 1
EndSplineSet
Validated: 1
EndChar

StartChar: s
Encoding: 83 115 86
Width: 700
Flags: W
LayerCount: 2
Fore
SplineSet
0 99 m 1
 0 203 l 1
 203 203 l 1
 203 104 l 1
 397 104 l 1
 397 298 l 1
 99 298 l 1
 99 397 l 1
 0 397 l 1
 0 501 l 1
 99 501 l 1
 99 600 l 1
 501 600 l 1
 501 496 l 1
 203 496 l 1
 203 402 l 1
 501 402 l 1
 501 302 l 1
 600 302 l 1
 600 99 l 1
 501 99 l 1
 501 0 l 1
 99 0 l 1
 99 99 l 1
 0 99 l 1
EndSplineSet
Validated: 1
EndChar

StartChar: t
Encoding: 84 116 87
Width: 600
Flags: W
LayerCount: 2
Fore
SplineSet
198 0 m 1
 198 99 l 1
 99 99 l 1
 99 496 l 1
 0 496 l 1
 0 601 l 1
 99 601 l 1
 99 700 l 1
 302 700 l 1
 302 601 l 1
 401 601 l 1
 401 496 l 1
 302 496 l 1
 302 104 l 1
 500 104 l 1
 500 0 l 1
 198 0 l 1
EndSplineSet
Validated: 1
EndChar

StartChar: u
Encoding: 85 117 88
Width: 700
Flags: W
LayerCount: 2
Fore
SplineSet
99 0 m 1
 99 99 l 1
 0 99 l 1
 0 600 l 1
 203 600 l 1
 203 104 l 1
 298 104 l 1
 298 203 l 1
 397 203 l 1
 397 600 l 1
 600 600 l 1
 600 0 l 1
 99 0 l 1
EndSplineSet
Validated: 1
EndChar

StartChar: v
Encoding: 86 118 89
Width: 700
Flags: W
LayerCount: 2
Fore
SplineSet
198 0 m 1
 198 99 l 1
 99 99 l 1
 99 198 l 1
 0 198 l 1
 0 600 l 1
 203 600 l 1
 203 203 l 1
 397 203 l 1
 397 600 l 1
 600 600 l 1
 600 198 l 1
 501 198 l 1
 501 99 l 1
 402 99 l 1
 402 0 l 1
 198 0 l 1
EndSplineSet
Validated: 1
EndChar

StartChar: w
Encoding: 87 119 90
Width: 800
Flags: W
LayerCount: 2
Fore
SplineSet
99 0 m 1
 99 198 l 1
 0 198 l 1
 0 600 l 1
 204 600 l 1
 204 402 l 1
 298 402 l 1
 298 501 l 1
 402 501 l 1
 402 402 l 1
 496 402 l 1
 496 600 l 1
 700 600 l 1
 700 198 l 1
 601 198 l 1
 601 0 l 1
 397 0 l 1
 397 99 l 1
 303 99 l 1
 303 0 l 1
 99 0 l 1
EndSplineSet
Validated: 1
EndChar

StartChar: x
Encoding: 88 120 91
Width: 700
Flags: W
LayerCount: 2
Fore
SplineSet
0 0 m 1
 0 203 l 1
 99 203 l 1
 99 302 l 1
 198 302 l 1
 198 397 l 1
 99 397 l 1
 99 496 l 1
 0 496 l 1
 0 600 l 1
 203 600 l 1
 203 501 l 1
 397 501 l 1
 397 600 l 1
 600 600 l 1
 600 496 l 1
 501 496 l 1
 501 397 l 1
 402 397 l 1
 402 302 l 1
 501 302 l 1
 501 203 l 1
 600 203 l 1
 600 0 l 1
 397 0 l 1
 397 198 l 1
 203 198 l 1
 203 0 l 1
 0 0 l 1
EndSplineSet
Validated: 1
EndChar

StartChar: y
Encoding: 89 121 92
Width: 700
Flags: W
LayerCount: 2
Fore
SplineSet
99 -200 m 1
 99 -96 l 1
 397 -96 l 1
 397 -1 l 1
 99 -1 l 1
 99 98 l 1
 0 98 l 1
 0 600 l 1
 203 600 l 1
 203 103 l 1
 397 103 l 1
 397 600 l 1
 600 600 l 1
 600 -101 l 1
 501 -101 l 1
 501 -200 l 1
 99 -200 l 1
EndSplineSet
Validated: 1
EndChar

StartChar: z
Encoding: 90 122 93
Width: 700
Flags: W
LayerCount: 2
Fore
SplineSet
0 203 m 1
 99 203 l 1
 99 302 l 1
 198 302 l 1
 198 402 l 1
 298 402 l 1
 298 496 l 1
 0 496 l 1
 0 600 l 1
 600 600 l 1
 600 397 l 1
 501 397 l 1
 501 298 l 1
 402 298 l 1
 402 198 l 1
 302 198 l 1
 302 104 l 1
 600 104 l 1
 600 0 l 1
 0 0 l 1
 0 203 l 1
EndSplineSet
Validated: 1
EndChar

StartChar: asciitilde
Encoding: 94 126 97
Width: 800
Flags: W
LayerCount: 2
Fore
SplineSet
0 300 m 1
 0 402 l 1
 99 402 l 1
 99 500 l 1
 402 500 l 1
 402 402 l 1
 496 402 l 1
 496 500 l 1
 700 500 l 1
 700 398 l 1
 601 398 l 1
 601 300 l 1
 298 300 l 1
 298 398 l 1
 204 398 l 1
 204 300 l 1
 0 300 l 1
EndSplineSet
Validated: 1
EndChar

StartChar: copyright
Encoding: 95 169 98
Width: 900
Flags: W
LayerCount: 2
Fore
SplineSet
104 104 m 1
 204 104 l 1
 204 4 l 1
 596 4 l 1
 596 104 l 1
 696 104 l 1
 696 496 l 1
 596 496 l 1
 596 596 l 1
 204 596 l 1
 204 496 l 1
 104 496 l 1
 104 104 l 1
99 -1 m 1
 99 99 l 1
 0 99 l 1
 0 501 l 1
 99 501 l 1
 99 601 l 1
 199 601 l 1
 199 700 l 1
 601 700 l 1
 601 601 l 1
 701 601 l 1
 701 501 l 1
 800 501 l 1
 800 99 l 1
 701 99 l 1
 701 -1 l 1
 601 -1 l 1
 601 -100 l 1
 199 -100 l 1
 199 -1 l 1
 99 -1 l 1
298 99 m 1
 298 198 l 1
 199 198 l 1
 199 402 l 1
 298 402 l 1
 298 501 l 1
 502 501 l 1
 502 397 l 1
 303 397 l 1
 303 203 l 1
 497 203 l 1
 497 302 l 1
 601 302 l 1
 601 198 l 1
 502 198 l 1
 502 99 l 1
 298 99 l 1
EndSplineSet
Validated: 1
EndChar

StartChar: registered
Encoding: 96 174 99
Width: 900
Flags: W
LayerCount: 2
Fore
SplineSet
303 397 m 1
 303 302 l 1
 497 302 l 1
 497 397 l 1
 303 397 l 1
204 99 m 1
 204 4 l 1
 596 4 l 1
 596 99 l 1
 497 99 l 1
 497 198 l 1
 303 198 l 1
 303 99 l 1
 204 99 l 1
104 104 m 1
 199 104 l 1
 199 402 l 1
 298 402 l 1
 298 501 l 1
 502 501 l 1
 502 402 l 1
 601 402 l 1
 601 298 l 1
 502 298 l 1
 502 203 l 1
 601 203 l 1
 601 104 l 1
 696 104 l 1
 696 496 l 1
 596 496 l 1
 596 596 l 1
 204 596 l 1
 204 496 l 1
 104 496 l 1
 104 104 l 1
99 -1 m 1
 99 99 l 1
 0 99 l 1
 0 501 l 1
 99 501 l 1
 99 601 l 1
 199 601 l 1
 199 700 l 1
 601 700 l 1
 601 601 l 1
 701 601 l 1
 701 501 l 1
 800 501 l 1
 800 99 l 1
 701 99 l 1
 701 -1 l 1
 601 -1 l 1
 601 -100 l 1
 199 -100 l 1
 199 -1 l 1
 99 -1 l 1
EndSplineSet
Validated: 1
EndChar
